# xmcd
#
# Track frame offsets: 
#        182
#        13322
#        25655
#        39430
#        53265
#        63610
#        75780
#        86300
#        97447
#        108717
#        120210
#        133060
#        145920
#        158100
#        168632
#        178895
#        200652
#        211657
#
# Disc length: 2976 seconds
#
# Revision: 2
# Processed by: cddbd v1.5.2PL0 Copyright (c) Steve Scherf et al.
# Submitted via: ExactAudioCopyFreeDBPlugin 1.0
#
DISCID=f00b9e12
DTITLE=Elmore James - Dust My Broom
DYEAR=1900
DGENRE=Blues
TTITLE0=Dust My Broom
TTITLE1=Cry for Me Baby
TTITLE2=The Twelve Years Old Boy
TTITLE3=It Hurts Me Too
TTITLE4=Elmore's Contribution to Jazz
TTITLE5=The Sky Is Crying
TTITLE6=Take Me Where You Go
TTITLE7=Rollin' and Tumblin'
TTITLE8=Shake Your Moneymaker
TTITLE9=Fine Little Mama
TTITLE10=Held My Baby Last Night
TTITLE11=Baby Please Set a Date
TTITLE12=Got to Move
TTITLE13=One Way Out
TTITLE14=Can't Stop Loving
TTITLE15=Something Inside of Me
TTITLE16=Person to Person
TTITLE17=Talk to Me Baby
EXTD=
EXTT0=
EXTT1=
EXTT2=
EXTT3=
EXTT4=
EXTT5=
EXTT6=
EXTT7=
EXTT8=
EXTT9=
EXTT10=
EXTT11=
EXTT12=
EXTT13=
EXTT14=
EXTT15=
EXTT16=
EXTT17=
PLAYORDER=
